<svg xmlns="http://www.w3.org/2000/svg" viewBox="0 20 191 226" role="img" aria-labelledby="title desc">
  <title id="title">The Double Fifth Festival</title>
  <desc id="desc">Soft river haze, quiet currents, and slender mugwort leaves suggest the stillness of an early summer river.</desc>
  <defs>
    <radialGradient id="river-light" cx=".56" cy=".52" r=".6">
      <stop stop-color="#dfb66f" stop-opacity=".3" />
      <stop offset="1" stop-color="#dfb66f" stop-opacity="0" />
    </radialGradient>
    <linearGradient id="river-wash" x1="0" y1="0" x2="0" y2="1">
      <stop stop-color="#9aa99a" stop-opacity=".38" />
      <stop offset="1" stop-color="#7f9687" stop-opacity=".14" />
    </linearGradient>
    <g id="mugwort-leaf" fill="#8da18d" fill-opacity=".44" stroke="#718675" stroke-opacity=".72" stroke-width=".4" stroke-linecap="round" stroke-linejoin="round">
      <path d="M0 0c-6 4-11 10-13 18 7-1 12-6 15-14Z" />
      <path d="M0 0-10 14" fill="none" stroke-width=".32" />
    </g>
    <g id="cloud-line" fill="none" stroke-linecap="round">
      <path d="M0 0c9-4 17-4 25-1m4 0c5-2 9-2 14-.8" stroke="#748779" stroke-opacity=".46" stroke-width=".58" />
      <path d="M3 3c8-2 14-2 20 0" stroke="#f6f1e6" stroke-width=".52" />
    </g>
  </defs>
  <g transform="translate(0 266) scale(1 -1)" fill="none" stroke-linecap="round" stroke-linejoin="round">
    <rect x="159" y="24" width="8" height="16" fill="#b95449" stroke="none" />
    <g fill="#fff8ec" stroke="none">
      <path d="M2121 2852Q2157 2793 2219 2774Q2253 2763 2281 2772Q2408 2770 2575 2800Q2589 2803 2611 2807Q2700 2771 2829 2784Q2953 2797 2960 2798Q2999 2799 3032 2795Q3053 2798 3150 2791Q3266 2782 3306 2815Q3339 2842 3339 2898Q3294 3027 3164 3038Q3112 3042 2982 3022Q2902 3010 2861 3011Q2487 2992 2298 2964Q2207 2950 2121 2932Q2095 2923 2096 2891Q2096 2862 2121 2852ZM1632 2499Q1595 2557 1502 2619Q1499 2621 1495 2624Q1358 2701 1256 2738Q1135 2780 989 2753Q922 2741 870 2716Q725 2641 646 2495Q588 2387 585 2272L600 1659Q609 1437 631 1270Q639 1250 678 1207L706 1175Q731 1138 722 1100Q809 958 1018 911Q1078 898 1143 895L1318 949Q1478 1005 1553 1103Q1579 1137 1598 1179Q1648 1330 1659 1598L1670 1907Q1673 1962 1678 2010Q1643 2083 1651 2213Q1658 2344 1658 2366Q1656 2442 1632 2499ZM1393 1452Q1404 1360 1288 1276L1177 1202Q1065 1169 986 1209Q934 1235 904 1293L850 1716Q833 1824 813 1908V1942Q837 1943 851 1907Q870 1856 871 1854Q887 1825 915 1817Q996 1775 1110 1800L1245 1833Q1289 1841 1325 1839Q1354 1844 1368 1868Q1369 1871 1370 1873Q1308 1971 1222 2021Q1115 2059 948 2023Q917 2017 847 1999Q819 2049 829 2125Q840 2210 838 2237Q838 2255 835 2272Q883 2457 962 2502Q972 2507 983 2511Q1029 2505 1126 2529Q1215 2550 1253 2541Q1299 2529 1325 2477Q1349 2416 1357 2273Q1365 2128 1384 2068L1402 2026L1404 2021Q1355 1867 1381 1575Q1376 1630 1393 1452ZM3817 1464 3745 1542Q3718 1567 3692 1578Q3644 1533 3566 1545L3481 1559L3448 1558L3422 1551L3407 1543Q3333 1574 3206 1569L3096 1567Q3027 1569 2975 1589Q2954 1688 3039 1776Q3057 1795 3141 1865Q3224 1936 3246 1990Q3266 2042 3248 2101Q3303 2137 3300 2209L3293 2297Q3294 2347 3328 2374Q3379 2339 3441 2360L3504 2383Q3555 2396 3601 2363Q3637 2403 3641 2418Q3646 2434 3635 2454Q3595 2523 3547 2539Q3528 2545 3505 2545Q3501 2545 3498 2545Q3318 2588 3021 2565L2918 2556Q2862 2590 2775 2578L2675 2565Q2634 2562 2599 2568Q2582 2568 2537 2597L2505 2614Q2461 2630 2440 2568L1973 2579Q1961 2576 1894 2580H1845Q1769 2572 1757 2499Q1755 2410 1856 2364Q1871 2357 1965 2324Q1976 2320 1985 2317Q2016 2354 2081 2343Q2141 2332 2147 2332Q2166 2332 2178 2340Q2236 2283 2282 2147Q2331 2006 2336 1994L2363 1936Q2432 1808 2564 1786Q2581 1783 2599 1782Q2669 1779 2675 1730Q2676 1717 2668 1654L2666 1615Q2666 1607 2668 1600Q2637 1560 2553 1562L2464 1564Q2436 1563 2417 1555Q2275 1529 2010 1538Q1848 1543 1803 1543L1758 1503Q1734 1476 1734 1441Q1732 1387 1803 1340Q1813 1334 1825 1327Q1902 1367 2029 1349L2166 1328Q2284 1317 2360 1373Q2405 1335 2502 1336Q2609 1337 2612 1337Q2665 1333 2702 1316L2690 895Q2651 875 2651 816L2652 755Q2647 710 2599 703L2577 701Q2466 646 2419 716Q2401 743 2375 835Q2347 935 2313 969Q2303 979 2292 986Q2259 1000 2218 990Q2180 981 2167 952Q2121 892 2132 789L2144 680V656Q2176 567 2177 404Q2178 247 2186 190Q2197 120 2224 64Q2203 0 2236 -100Q2270 -200 2272 -206Q2283 -252 2281 -289Q2305 -314 2361 -394Q2414 -470 2459 -495Q2505 -521 2565 -516Q2667 -592 2828 -575Q2859 -572 3014 -544Q3144 -520 3225 -528L3453 -323L3499 -227Q3543 -118 3487 -50Q3570 235 3499 674Q3485 762 3464 861L3412 952Q3396 975 3378 986L3356 995Q3338 1000 3316 997Q3235 995 3210 912L3202 873V872Q3230 782 3176 766Q3156 761 3080 764L3026 763Q2995 759 2975 747Q2945 895 2963 974Q2980 1046 3032 1088Q2982 1100 2972 1143L2960 1225Q2957 1237 2952 1248Q2970 1299 3032 1314L3125 1332Q3150 1339 3168 1350Q3289 1301 3490 1317L3712 1339Q3714 1339 3715 1339Q3778 1326 3806 1381Q3825 1418 3817 1464ZM3202 -152Q3141 -240 2980 -272L2872 -289Q2736 -248 2708 -238Q2543 -174 2495 -52Q2490 -40 2486 -27Q2507 17 2578 12L2673 2Q2714 2 2736 18Q2816 -4 2951 15Q3063 31 3100 30Q3144 29 3197 88L3225 121Q3243 28 3231 -55Q3223 -112 3202 -152ZM3202 496Q3225 374 3211 311Q3204 282 3191 257Q3147 308 3061 297L2962 281Q2921 278 2895 292Q2779 262 2590 273L2463 280Q2413 310 2407 404Q2407 408 2406 440Q2480 465 2636 480Q2788 494 2861 519Q2992 498 3194 496ZM2816 2010Q2801 2010 2731 1990Q2649 1968 2616 1996Q2597 2012 2588 2044Q2523 2141 2516 2222Q2513 2261 2520 2306Q2571 2350 2672 2342L2813 2329Q2814 2329 2816 2329Q2864 2347 2961 2343Q2986 2342 3009 2340Q2974 2309 2967 2221Q2959 2130 2952 2108Q2932 2034 2861 2016L2819 2010Z" transform="translate(160.26004 35.71928) scale(0.00124420)" />
      <path d="M2802 980Q2771 1062 2743 1230Q2715 1399 2681 1486Q2675 1501 2668 1516Q2647 1558 2581 1598L2519 1635Q2466 1673 2459 1726Q2440 1754 2453 1822Q2465 1892 2459 1918Q2272 2133 2148 2235Q2080 2291 2015 2329L2031 2362Q2211 2397 2298 2587Q2329 2655 2371 2818Q2373 2826 2375 2832Q2366 2853 2394 2890Q2408 2909 2408 2915Q2334 3026 2283 3041Q2213 3043 2189 2983Q2186 2976 2168 2906Q2155 2855 2132 2832Q2124 2781 2071 2734Q2023 2691 2014 2681Q1997 2661 1989 2639Q1976 2639 1948 2610Q1917 2577 1897 2584Q1884 2589 1872 2605L1847 2705Q1833 2778 1855 2832Q1815 2941 1679 2991L1603 3014Q1588 3018 1562 3024Q1530 3002 1462 3004Q1394 3005 1366 2991Q1359 2988 1352 2983Q1249 2918 1016 2803Q799 2697 682 2622Q675 2563 621 2529L542 2481Q509 2459 489 2429Q456 2384 497 2340L534 2304L540 2295Q668 2264 787 2350Q841 2388 883 2446Q902 2457 969 2511Q1041 2570 1094 2574Q1110 2575 1126 2572Q1160 2520 1244 2462Q1326 2407 1351 2382L1369 2362Q1398 2312 1462 2313L1539 2316Q1552 2315 1562 2312Q1422 2243 1269 2119Q1238 2183 1204 2179Q1194 2177 1185 2170Q1178 2124 1123 2062L1074 2006Q1052 1978 1042 1952Q1031 1931 1016 1860L1003 1811Q988 1771 959 1742Q1046 1682 997 1641L969 1623L881 1579L860 1564Q853 1557 850 1550Q756 1466 699 1305L626 1076Q620 1061 615 1047Q634 915 594 723L554 528Q533 407 540 309Q559 247 607 236Q619 233 632 234Q748 298 775 452Q782 495 788 637Q791 711 799 753Q820 822 840 989Q860 1159 894 1241Q929 1325 992 1382Q1063 1466 1187 1456Q1206 1455 1317 1435Q1327 1433 1336 1432L1160 1223Q1041 1166 1001 1115L984 1089Q978 1077 975 1064Q976 1006 1023 982L1109 946Q1160 992 1294 1073Q1433 1157 1494 1216Q1523 1243 1545 1273Q1563 1222 1557 1154Q1554 1119 1545 1080Q1592 1032 1589 935L1586 829Q1587 795 1595 770Q1616 726 1616 638L1618 576Q1625 522 1663 494Q1660 459 1612 459Q1605 459 1595 460Q1499 442 1433 473Q1390 492 1364 532Q1357 541 1352 552Q1319 588 1281 580Q1268 578 1252 569Q1140 414 1166 248Q1170 224 1177 200Q1181 181 1163 140Q1144 98 1158 75Q1166 62 1185 50L1207 -161Q1236 -368 1329 -478Q1332 -483 1336 -487Q1464 -615 1796 -566Q1830 -562 1872 -554Q1942 -621 2040 -561Q2058 -549 2098 -520Q2201 -502 2234 -402Q2246 -366 2261 -253Q2272 -167 2291 -126Q2319 -33 2302 131Q2285 290 2285 328Q2284 382 2291 427Q2295 474 2237 524Q2219 540 2199 552Q2264 573 2310 629Q2324 646 2341 670Q2375 777 2286 842Q2255 865 2151 911Q2050 956 2015 996Q1954 1011 1907 998Q1851 983 1839 929Q1856 837 1946 770Q1955 764 2049 703Q2128 652 2165 603L2172 575Q2171 570 2165 569Q2118 587 2072 552Q2060 542 2050 530Q2037 514 2031 494Q1977 508 1873 492Q1783 478 1748 487L1730 494L1805 519Q1838 627 1822 800Q1806 970 1806 986Q1805 1000 1805 1013L1788 1030Q1796 1089 1787 1227Q1778 1364 1800 1435Q1802 1442 1805 1449Q1887 1474 2019 1467Q2153 1461 2214 1468Q2249 1473 2283 1482L2335 1450Q2377 1429 2408 1449Q2482 1390 2503 1269L2525 1092Q2544 988 2601 929L2622 687Q2644 510 2718 427Q2762 382 2817 414Q2844 430 2861 460Q2914 553 2879 682Q2876 693 2835 815Q2801 914 2802 980ZM1319 2689Q1339 2718 1417 2737Q1490 2755 1512 2765Q1576 2793 1618 2750L1632 2731L1643 2704Q1651 2674 1646 2639Q1642 2545 1579 2522L1436 2594Q1360 2636 1319 2689ZM1495 1675Q1351 1694 1217 1685Q1124 1678 1042 1658Q1149 1690 1278 1806L1426 1941Q1534 2035 1629 2069Q1663 2025 1650 1954Q1638 1886 1637 1876Q1637 1848 1646 1826Q1630 1765 1672 1717L1696 1692Q1678 1669 1611 1678Q1540 1689 1519 1685Q1505 1682 1495 1675ZM1822 242Q1857 230 1934 240Q2008 250 2040 235Q2054 228 2065 217L2054 -12Q2039 -197 1951 -273Q1937 -284 1922 -294Q1864 -271 1768 -299L1670 -326Q1580 -346 1512 -311Q1431 -139 1409 -43Q1381 77 1403 200Q1466 236 1597 234Q1737 233 1759 234Q1793 236 1822 242ZM1805 1692Q1854 1750 1867 1856L1880 1970Q1891 2038 1922 2086Q2149 1931 2236 1792Q2267 1742 2283 1692Q2132 1678 1969 1683Q1888 1685 1805 1692ZM2291 1239Q2242 1252 2159 1310Q2079 1367 2036 1380Q1988 1394 1939 1382Q1895 1371 1884 1317Q1879 1285 1889 1256Q2007 1136 2200 1014Q2235 991 2308 946Q2322 955 2374 971Q2414 983 2422 1008Q2425 1017 2425 1030Q2446 1099 2388 1154L2307 1222Q2298 1231 2291 1239ZM1319 653Q1326 710 1391 764L1457 817Q1511 868 1495 929Q1469 986 1419 1015Q1369 1045 1336 1013Q1299 939 1195 843L1109 763Q1077 730 1059 703Q1030 658 1060 609Q1078 580 1109 569Q1170 540 1231 586L1300 641Q1310 648 1319 653ZM1478 117 1436 -18Q1469 -86 1560 -85Q1571 -84 1670 -74Q1734 -66 1771 -76Q1791 -77 1836 -59Q1877 -42 1906 -59Q1909 -58 1955 -52Q1994 -46 1995 -25Q1996 -15 1989 -1Q1952 128 1861 143L1823 145L1771 138L1623 106L1569 100L1525 103Q1500 107 1478 117Z" transform="translate(160.91313 30.48051) scale(0.00123953)" />
      <path d="M2245 984 2366 996Q2440 1010 2462 1068Q2463 1071 2464 1074Q2455 1145 2384 1161Q2370 1164 2289 1170Q2251 1172 2230 1180Q2219 1147 2179 1162L2157 1175Q2144 1184 2139 1195Q2045 1167 1937 1182Q1850 1194 1793 1233Q1794 1245 1784 1296Q1776 1335 1793 1353Q1871 1376 2033 1364Q2197 1351 2256 1355Q2304 1358 2343 1368Q2383 1401 2366 1450L2344 1510Q2343 1511 2343 1512Q2281 1563 2194 1556L2092 1544Q2029 1542 1981 1572Q1926 1560 1835 1609Q1770 1643 1762 1647Q1750 1695 1819 1764Q1823 1768 1830 1775Q1873 1796 1922 1777Q1961 1761 1966 1760Q2017 1772 2128 1754Q2239 1736 2289 1746Q2328 1753 2358 1775L2379 1840Q2387 1877 2358 1896Q2278 1959 2176 1930Q2152 1923 2124 1911Q2073 1962 1952 1960Q2010 1961 1860 1956Q1754 1994 1747 2175L1966 2160Q2000 2127 2081 2117Q2159 2107 2183 2095Q2192 2091 2200 2085Q2251 2097 2332 2079Q2366 2071 2373 2070L2430 2119Q2458 2148 2449 2175Q2437 2225 2372 2272L2328 2303Q2283 2276 2228 2305L2169 2337Q2145 2348 2124 2348Q2131 2397 2178 2464Q2220 2525 2228 2559Q2229 2563 2230 2567Q2231 2703 2146 2788Q2105 2830 2041 2861Q1971 2846 1862 2878L1759 2907Q1670 2926 1597 2906Q1585 2917 1533 2952Q1481 2986 1471 3025Q1468 3037 1468 3050Q1460 3093 1413 3108Q1362 3125 1325 3096Q1309 3084 1302 3065Q1314 2929 1156 2796Q1115 2761 1069 2733Q1022 2668 904 2629L805 2597Q748 2527 625 2460L500 2392L446 2356L406 2323L375 2289Q363 2274 352 2258Q291 2209 375 2123L383 2115Q485 2101 590 2184Q605 2197 694 2278Q789 2365 860 2385Q900 2397 941 2394Q997 2348 1116 2327Q1243 2305 1263 2300Q1284 2294 1302 2288Q1292 2252 1246 2243Q1196 2233 1194 2233L1177 2223L1174 2220Q999 2206 865 2068Q823 2025 790 1972Q779 1905 726 1673Q678 1460 677 1338Q669 1313 628 1153Q614 1098 601 1059Q572 1010 622 976L682 940Q688 936 692 931Q758 923 819 1010L880 1104Q911 1120 984 1106Q1057 1091 1086 1099Q1093 1101 1099 1104L1526 1048Q1706 1028 1845 1029Q1849 1024 1877 1011Q1899 1001 1891 984Q1888 961 1871 955L1860 954L1843 797Q1823 672 1746 622L1717 607Q1601 586 1567 672Q1552 710 1544 822Q1535 940 1507 986Q1503 993 1499 999Q1478 1020 1426 1001Q1383 985 1378 984Q1374 957 1378 846Q1382 724 1349 678Q1339 664 1326 654L1302 641Q1295 639 1287 637Q1201 672 1084 765L993 836L939 871Q924 879 910 886Q849 872 872 776L880 750L999 583Q1081 476 1174 426Q1194 415 1260 404Q1322 393 1338 366L1346 346Q1348 338 1348 328Q1323 293 1265 279Q1225 269 1220 267Q1178 207 1087 165L987 120L944 94L925 79Q873 36 789 -72Q726 -151 692 -185Q678 -219 618 -296Q551 -380 537 -434Q524 -486 541 -539Q555 -574 599 -592Q623 -602 646 -600Q733 -564 785 -457L854 -296Q859 -285 865 -275Q933 -250 1014 -170Q1097 -88 1109 -77Q1142 -48 1174 -27Q1209 -21 1248 27Q1281 69 1297 78Q1320 91 1348 79Q1357 -25 1350 -299Q1347 -403 1348 -464Q1330 -509 1338 -557Q1344 -591 1363 -615Q1392 -647 1449 -623Q1500 -602 1506 -601Q1510 -600 1514 -600Q1587 -482 1586 -315L1577 -87Q1577 7 1597 79Q1698 64 1783 -1Q1835 -41 1860 -87Q2045 -240 2199 -491Q2224 -530 2245 -569Q2293 -587 2330 -577Q2362 -568 2373 -539Q2417 -368 2301 -218Q2253 -156 2131 -48L2035 40Q2014 60 1996 79Q1936 86 1858 145Q1788 197 1762 209Q1710 233 1657 222Q1644 246 1598 268L1560 288Q1523 313 1529 358Q1556 435 1639 440Q1654 441 1741 434Q1799 430 1830 441Q1905 414 1949 480Q1957 492 1992 566Q2017 618 2041 637Q2033 681 2040 794Q2047 901 2026 946Q2009 981 1971 1000L1937 1014H1936H2011Q2045 997 2136 997Q2216 997 2245 984ZM1438 2145Q1444 2145 1480 2158Q1516 2170 1526 2142L1529 2130Q1524 2104 1540 2062Q1555 2024 1541 2002Q1537 1995 1529 1987Q1493 1970 1417 1990L1344 2006Q1330 2009 1318 2009Q1294 2037 1240 2020Q1194 2007 1182 2009Q1164 2013 1159 2039Q1226 2077 1408 2135Q1426 2141 1438 2145ZM1483 1263Q1401 1280 1244 1269Q1096 1259 1031 1271Q944 1286 880 1338Q849 1385 929 1424Q935 1426 941 1429Q993 1393 1076 1410Q1155 1425 1156 1425Q1213 1431 1250 1398Q1307 1418 1403 1393Q1493 1369 1522 1368Q1526 1368 1529 1368Q1548 1324 1525 1291L1511 1277Q1499 1267 1483 1263ZM1566 1647Q1486 1609 1355 1625L1210 1643L1147 1644Q1105 1642 1069 1632Q1065 1634 1014 1650L984 1663Q963 1674 956 1693L973 1787Q985 1826 1024 1836Q1104 1836 1262 1811Q1404 1789 1492 1802Q1503 1804 1514 1806Q1562 1795 1563 1738L1562 1665Q1563 1655 1566 1647ZM1657 2424Q1616 2457 1520 2454L1425 2452L1381 2458L1350 2468L1348 2469Q1313 2476 1198 2481L1130 2488Q1105 2492 1084 2499Q1179 2601 1420 2665Q1435 2669 1453 2673Q1585 2674 1737 2715Q1742 2717 1747 2718Q1774 2693 1848 2696Q1915 2698 1935 2688Q1952 2681 1959 2665Q1966 2650 1966 2627Q1984 2557 1926 2507L1846 2446Q1825 2428 1815 2409Q1788 2443 1738 2430Q1691 2417 1684 2417Q1669 2416 1657 2424Z" transform="translate(161.32471 25.26044) scale(0.00120078)" />
    </g>

    <!-- Early summer light dissolves into layered river haze -->
    <circle cx="132" cy="199" r="31" fill="url(#river-light)" stroke="none" />
    <path fill="#b9c4b5" fill-opacity=".25" stroke="none" d="M20 151c20-4 31 4 43 10 12 6 21 6 33 1 15-7 26-5 39 1 13 6 24 5 37-1v-27H20Z" />
    <path stroke="#768b7b" stroke-opacity=".54" stroke-width=".62" d="M22 151c18-4 30 4 41 10 12 6 21 6 33 1 15-7 26-5 39 1 12 6 24 5 35 0" />
    <path stroke="#d8dcd0" stroke-width=".58" d="M30 145c13-2 22 2 31 7m57 2c14-5 24-4 36 1" />
    <use href="#cloud-line" transform="translate(29 191) rotate(-4)" />
    <use href="#cloud-line" transform="translate(103 217) rotate(3) scale(.82)" />
    <use href="#cloud-line" transform="translate(121 179) rotate(-2) scale(.7)" />
    <path fill="#f2dfb8" fill-opacity=".12" stroke="none" d="M71 198c18-8 37-9 57-4 12 3 22 3 34 0v-7c-13 2-24 2-37-1-20-5-38-3-56 5Z" />

    <!-- The river is only a few soft, receding strokes -->
    <path fill="url(#river-wash)" fill-opacity=".58" stroke="none" d="M20 131c20 4 37 4 53 0 18-4 34-4 51 0 18 4 34 4 48 0v-12c-16 3-31 3-48 0-18-3-34-3-52 0-18 4-34 4-52 0Z" />
    <path stroke="#607668" stroke-opacity=".5" stroke-width=".58" d="M24 126c15 2 29 2 43-1m19-1c17-2 31-1 46 2m17 1c7 0 13 0 19-1" />
    <path stroke="#f7f2e6" stroke-opacity=".9" stroke-width=".62" d="M31 115c12 2 23 2 34 1m54-1c14-2 26-1 39 2" />
    <path stroke="#d9bd84" stroke-opacity=".42" stroke-width=".46" d="M65 109c10 1 18 1 27 0m17 0c8 0 15 .5 22 1" />
    <path stroke="#829586" stroke-opacity=".48" stroke-width=".44" d="M27 99c13 2 24 2 35 1m69-1c10-1 19 0 28 2" />
    <path stroke="#f7f2e6" stroke-opacity=".72" stroke-width=".46" d="M44 89c15 1 27 1 38-1m31 0c13-1 24 0 35 2" />

    <!-- Mugwort grows from the banks, slender and aromatic -->
    <path stroke="#667c6c" stroke-opacity=".64" stroke-width=".6" d="M35 63c4 18 7 37 10 56m-5-30c4 4 7 9 10 15m-7-29c-4 4-7 8-9 13m10-29c6 5 10 10 13 16" />
    <use href="#mugwort-leaf" transform="translate(45 87) rotate(28)" />
    <use href="#mugwort-leaf" transform="translate(39 78) rotate(-148) scale(.82)" />
    <use href="#mugwort-leaf" transform="translate(50 101) rotate(46) scale(.86)" />
    <use href="#mugwort-leaf" transform="translate(54 70) rotate(38) scale(.72)" />
    <path stroke="#87998a" stroke-opacity=".4" stroke-width=".5" d="M151 62c-3 18-5 35-5 55m2-27c-5 4-8 8-11 13m10-28c4 4 7 8 9 13m-11-31c-7 5-11 10-14 16" />
    <use href="#mugwort-leaf" transform="translate(146 88) rotate(-148) scale(.94)" opacity=".38" />
    <use href="#mugwort-leaf" transform="translate(149 78) rotate(28) scale(.82)" opacity=".55" />
    <use href="#mugwort-leaf" transform="translate(138 102) rotate(-133) scale(.84)" opacity=".55" />
    <use href="#mugwort-leaf" transform="translate(132 71) rotate(-142) scale(.72)" opacity=".55" />
    <path stroke="#809381" stroke-width=".46" d="M29 57c7-2 13-2 19 0m94-1c8-2 15-2 22 0" />
  </g>
</svg>
